<svg xmlns="http://www.w3.org/2000/svg" width="497.633" height="431.927" viewBox="0 0 131.665 114.281"><defs><filter id="f" width="1.702" height="1.655" x="-.351" y="-.328" style="color-interpolation-filters:sRGB"><feBlend in2="SourceGraphic" result="result3"/><feComposite in2="result3" k2="1" operator="arithmetic" result="result4"/><feColorMatrix in="result4" result="result0" values="1 0 0 0 0 0 1 0 0 0 0 0 1 0 0 0 0 0 0.85 0"/><feGaussianBlur in="SourceAlpha" stdDeviation="7"/><feSpecularLighting result="result1" specularExponent="25" surfaceScale="5"><feDistantLight azimuth="225" elevation="60"/></feSpecularLighting><feComposite in2="result0" k1=".5" k2="1" k3=".5" operator="arithmetic"/><feComposite in2="result0" operator="atop" result="result2"/><feComposite in2="SourceGraphic" operator="in" result="fbSourceGraphic"/><feColorMatrix in="fbSourceGraphic" result="fbSourceGraphicAlpha" values="0 0 0 -1 0 0 0 0 -1 0 0 0 0 -1 0 0 0 0 1 0"/><feGaussianBlur in="fbSourceGraphic" result="result6" stdDeviation="8"/><feComposite in="result6" in2="fbSourceGraphic" operator="xor" result="result10"/><feGaussianBlur result="result2" stdDeviation="8"/><feComposite in="result10" in2="fbSourceGraphic" operator="atop" result="result91"/><feComposite in="result2" in2="result91" operator="xor" result="result4"/><feGaussianBlur in="result4" result="result3" stdDeviation="4"/><feSpecularLighting result="result5" specularConstant="1.1" specularExponent="5" surfaceScale="18"><feDistantLight azimuth="235" elevation="55"/></feSpecularLighting><feComposite in="result3" in2="result5" k1=".5" k2=".5" k3="1.1" operator="arithmetic" result="result7"/><feComposite in="result7" in2="fbSourceGraphic" operator="atop" result="result8"/></filter><filter id="e" width="1.861" height="1.652" x="-.431" y="-.326" style="color-interpolation-filters:sRGB"><feBlend in2="SourceGraphic" result="result3"/><feComposite in2="result3" k2="1" operator="arithmetic" result="result4"/><feColorMatrix in="result4" result="result0" values="1 0 0 0 0 0 1 0 0 0 0 0 1 0 0 0 0 0 0.85 0"/><feGaussianBlur in="SourceAlpha" stdDeviation="7"/><feSpecularLighting result="result1" specularExponent="25" surfaceScale="5"><feDistantLight azimuth="225" elevation="60"/></feSpecularLighting><feComposite in2="result0" k1=".5" k2="1" k3=".5" operator="arithmetic"/><feComposite in2="result0" operator="atop" result="result2"/><feComposite in2="SourceGraphic" operator="in" result="fbSourceGraphic"/><feColorMatrix in="fbSourceGraphic" result="fbSourceGraphicAlpha" values="0 0 0 -1 0 0 0 0 -1 0 0 0 0 -1 0 0 0 0 1 0"/><feGaussianBlur in="fbSourceGraphic" result="result6" stdDeviation="8"/><feComposite in="result6" in2="fbSourceGraphic" operator="xor" result="result10"/><feGaussianBlur result="result2" stdDeviation="8"/><feComposite in="result10" in2="fbSourceGraphic" operator="atop" result="result91"/><feComposite in="result2" in2="result91" operator="xor" result="result4"/><feGaussianBlur in="result4" result="result3" stdDeviation="4"/><feSpecularLighting result="result5" specularConstant="1.1" specularExponent="5" surfaceScale="18"><feDistantLight azimuth="235" elevation="55"/></feSpecularLighting><feComposite in="result3" in2="result5" k1=".5" k2=".5" k3="1.1" operator="arithmetic" result="result7"/><feComposite in="result7" in2="fbSourceGraphic" operator="atop" result="result8"/></filter><filter id="d" width="1.569" height="2.063" x="-.285" y="-.532" style="color-interpolation-filters:sRGB"><feBlend in2="SourceGraphic" result="result3"/><feComposite in2="result3" k2="1" operator="arithmetic" result="result4"/><feColorMatrix in="result4" result="result0" values="1 0 0 0 0 0 1 0 0 0 0 0 1 0 0 0 0 0 0.85 0"/><feGaussianBlur in="SourceAlpha" stdDeviation="7"/><feSpecularLighting result="result1" specularExponent="25" surfaceScale="5"><feDistantLight azimuth="225" elevation="60"/></feSpecularLighting><feComposite in2="result0" k1=".5" k2="1" k3=".5" operator="arithmetic"/><feComposite in2="result0" operator="atop" result="result2"/><feComposite in2="SourceGraphic" operator="in" result="fbSourceGraphic"/><feColorMatrix in="fbSourceGraphic" result="fbSourceGraphicAlpha" values="0 0 0 -1 0 0 0 0 -1 0 0 0 0 -1 0 0 0 0 1 0"/><feGaussianBlur in="fbSourceGraphic" result="result6" stdDeviation="8"/><feComposite in="result6" in2="fbSourceGraphic" operator="xor" result="result10"/><feGaussianBlur result="result2" stdDeviation="8"/><feComposite in="result10" in2="fbSourceGraphic" operator="atop" result="result91"/><feComposite in="result2" in2="result91" operator="xor" result="result4"/><feGaussianBlur in="result4" result="result3" stdDeviation="4"/><feSpecularLighting result="result5" specularConstant="1.1" specularExponent="5" surfaceScale="18"><feDistantLight azimuth="235" elevation="55"/></feSpecularLighting><feComposite in="result3" in2="result5" k1=".5" k2=".5" k3="1.1" operator="arithmetic" result="result7"/><feComposite in="result7" in2="fbSourceGraphic" operator="atop" result="result8"/></filter><filter id="c" width="1.708" height="1.656" x="-.354" y="-.328" style="color-interpolation-filters:sRGB"><feBlend in2="SourceGraphic" result="result3"/><feComposite in2="result3" k2="1" operator="arithmetic" result="result4"/><feColorMatrix in="result4" result="result0" values="1 0 0 0 0 0 1 0 0 0 0 0 1 0 0 0 0 0 0.85 0"/><feGaussianBlur in="SourceAlpha" stdDeviation="7"/><feSpecularLighting result="result1" specularExponent="25" surfaceScale="5"><feDistantLight azimuth="225" elevation="60"/></feSpecularLighting><feComposite in2="result0" k1=".5" k2="1" k3=".5" operator="arithmetic"/><feComposite in2="result0" operator="atop" result="result2"/><feComposite in2="SourceGraphic" operator="in" result="fbSourceGraphic"/><feColorMatrix in="fbSourceGraphic" result="fbSourceGraphicAlpha" values="0 0 0 -1 0 0 0 0 -1 0 0 0 0 -1 0 0 0 0 1 0"/><feGaussianBlur in="fbSourceGraphic" result="result6" stdDeviation="8"/><feComposite in="result6" in2="fbSourceGraphic" operator="xor" result="result10"/><feGaussianBlur result="result2" stdDeviation="8"/><feComposite in="result10" in2="fbSourceGraphic" operator="atop" result="result91"/><feComposite in="result2" in2="result91" operator="xor" result="result4"/><feGaussianBlur in="result4" result="result3" stdDeviation="4"/><feSpecularLighting result="result5" specularConstant="1.1" specularExponent="5" surfaceScale="18"><feDistantLight azimuth="235" elevation="55"/></feSpecularLighting><feComposite in="result3" in2="result5" k1=".5" k2=".5" k3="1.1" operator="arithmetic" result="result7"/><feComposite in="result7" in2="fbSourceGraphic" operator="atop" result="result8"/></filter><filter id="b" width="1.848" height="1.649" x="-.424" y="-.324" style="color-interpolation-filters:sRGB"><feBlend in2="SourceGraphic" result="result3"/><feComposite in2="result3" k2="1" operator="arithmetic" result="result4"/><feColorMatrix in="result4" result="result0" values="1 0 0 0 0 0 1 0 0 0 0 0 1 0 0 0 0 0 0.85 0"/><feGaussianBlur in="SourceAlpha" stdDeviation="7"/><feSpecularLighting result="result1" specularExponent="25" surfaceScale="5"><feDistantLight azimuth="225" elevation="60"/></feSpecularLighting><feComposite in2="result0" k1=".5" k2="1" k3=".5" operator="arithmetic"/><feComposite in2="result0" operator="atop" result="result2"/><feComposite in2="SourceGraphic" operator="in" result="fbSourceGraphic"/><feColorMatrix in="fbSourceGraphic" result="fbSourceGraphicAlpha" values="0 0 0 -1 0 0 0 0 -1 0 0 0 0 -1 0 0 0 0 1 0"/><feGaussianBlur in="fbSourceGraphic" result="result6" stdDeviation="8"/><feComposite in="result6" in2="fbSourceGraphic" operator="xor" result="result10"/><feGaussianBlur result="result2" stdDeviation="8"/><feComposite in="result10" in2="fbSourceGraphic" operator="atop" result="result91"/><feComposite in="result2" in2="result91" operator="xor" result="result4"/><feGaussianBlur in="result4" result="result3" stdDeviation="4"/><feSpecularLighting result="result5" specularConstant="1.1" specularExponent="5" surfaceScale="18"><feDistantLight azimuth="235" elevation="55"/></feSpecularLighting><feComposite in="result3" in2="result5" k1=".5" k2=".5" k3="1.1" operator="arithmetic" result="result7"/><feComposite in="result7" in2="fbSourceGraphic" operator="atop" result="result8"/></filter><filter id="a" width="1.563" height="2.06" x="-.282" y="-.53" style="color-interpolation-filters:sRGB"><feBlend in2="SourceGraphic" result="result3"/><feComposite in2="result3" k2="1" operator="arithmetic" result="result4"/><feColorMatrix in="result4" result="result0" values="1 0 0 0 0 0 1 0 0 0 0 0 1 0 0 0 0 0 0.85 0"/><feGaussianBlur in="SourceAlpha" stdDeviation="7"/><feSpecularLighting result="result1" specularExponent="25" surfaceScale="5"><feDistantLight azimuth="225" elevation="60"/></feSpecularLighting><feComposite in2="result0" k1=".5" k2="1" k3=".5" operator="arithmetic"/><feComposite in2="result0" operator="atop" result="result2"/><feComposite in2="SourceGraphic" operator="in" result="fbSourceGraphic"/><feColorMatrix in="fbSourceGraphic" result="fbSourceGraphicAlpha" values="0 0 0 -1 0 0 0 0 -1 0 0 0 0 -1 0 0 0 0 1 0"/><feGaussianBlur in="fbSourceGraphic" result="result6" stdDeviation="8"/><feComposite in="result6" in2="fbSourceGraphic" operator="xor" result="result10"/><feGaussianBlur result="result2" stdDeviation="8"/><feComposite in="result10" in2="fbSourceGraphic" operator="atop" result="result91"/><feComposite in="result2" in2="result91" operator="xor" result="result4"/><feGaussianBlur in="result4" result="result3" stdDeviation="4"/><feSpecularLighting result="result5" specularConstant="1.1" specularExponent="5" surfaceScale="18"><feDistantLight azimuth="235" elevation="55"/></feSpecularLighting><feComposite in="result3" in2="result5" k1=".5" k2=".5" k3="1.1" operator="arithmetic" result="result7"/><feComposite in="result7" in2="fbSourceGraphic" operator="atop" result="result8"/></filter></defs><path d="M53.514 124.383c.43-.726.781-1.351.781-1.388s.353-.647.784-1.358c.432-.71.785-1.337.785-1.394s.352-.683.784-1.394c.43-.71.784-1.342.784-1.403 0-.062.184-.405.41-.762.224-.358.706-1.2 1.07-1.87s.738-1.318.832-1.438c.132-.168 2.08-.217 8.687-.217 6.697 0 8.516-.047 8.516-.218 0-.12-.275-.673-.61-1.229-.335-.555-.61-1.038-.61-1.072s-.47-.855-1.045-1.823c-.575-.969-1.045-1.797-1.045-1.84s-.43-.788-.956-1.655-1.124-1.909-1.33-2.315-.425-.778-.486-.826c-.06-.048-.205-.283-.321-.523q-.341-.704-1.486-2.653l-.484-.823.411-.658c.226-.362.667-1.128.98-1.703.314-.575.934-1.653 1.378-2.396l.809-1.35h1.222c.671-.001 2.319-.051 3.66-.111l2.44-.11.784 1.365c.431.75 1.008 1.76 1.282 2.245a598 598 0 0 0 3.52 6.05c.6 1.024 1.143 2.024 1.206 2.223s.187.36.277.36.162.08.162.178.706 1.398 1.569 2.891c.862 1.493 1.568 2.786 1.568 2.872 0 .087.078.158.174.158s.176.098.18.218c.002.12.341.767.754 1.438l.75 1.22 8.759.087 8.76.087.416.697c.23.383.472.814.539.958s.655 1.147 1.308 2.23c.652 1.082 1.186 2.004 1.186 2.047s.618 1.119 1.374 2.388c1.58 2.654 2.285 3.903 2.285 4.041 0 .054-14.308.097-31.797.097H52.733z" style="fill:#fff;stroke:#000;stroke-width:.616215;stroke-linecap:round;stroke-linejoin:round;stroke-dasharray:none;stroke-opacity:1" transform="translate(-39.158 -91.546)"/><path d="M129.89 146.048c-.344-.6-.8-1.403-1.013-1.786a81 81 0 0 0-.958-1.656 74 74 0 0 1-1.048-1.83c-.437-.795-1.266-2.226-3.837-6.62a201 201 0 0 1-1.258-2.179 603 603 0 0 0-2.054-3.572 456 456 0 0 1-2.44-4.269 86 86 0 0 0-1.452-2.486c-.397-.648-.722-1.216-.722-1.26s-.3-.573-.666-1.173-.924-1.563-1.238-2.138-1.1-1.947-1.748-3.05c-1.881-3.204-3.072-5.255-3.542-6.098-.24-.431-.916-1.594-1.5-2.584-.586-.99-1.064-1.826-1.064-1.857s-.47-.85-1.046-1.818c-.575-.968-1.045-1.796-1.045-1.84 0-.043-.419-.769-.931-1.613a101 101 0 0 1-1.415-2.402c-.266-.477-.837-1.48-1.27-2.23-.49-.85-.724-1.424-.621-1.527.098-.098 3.006-.145 7.283-.118l7.119.046 1.19 2.079c.655 1.143 1.19 2.102 1.19 2.131s.326.583.723 1.232c.397.648 1.05 1.767 1.452 2.486 2.145 3.839 3.795 6.621 3.927 6.621.138 0 1.285-1.832 2.292-3.659.237-.431 1.543-2.682 2.9-5.002a631 631 0 0 0 2.838-4.879c.643-1.154.42-1.097 4.252-1.097 2.616 0 3.573.057 3.7.218.093.12.447.728.786 1.35.34.624 1.096 1.938 1.681 2.921.585.984 1.064 1.877 1.064 1.985s-.235.579-.523 1.046c-.287.467-.522.888-.522.934s-.613 1.124-1.363 2.394c-.749 1.27-2.091 3.563-2.983 5.096s-2.15 3.69-2.795 4.792a193 193 0 0 0-1.61 2.788c-.239.431-.837 1.465-1.33 2.297s-.897 1.617-.897 1.743.275.684.61 1.24c.336.555.61 1.043.61 1.082s.431.784.958 1.653c.527.87.958 1.615.958 1.656 0 .042.384.725.853 1.519s1.076 1.838 1.35 2.32l1.861 3.268 1.363 2.39-1.258 2.221c-.692 1.222-1.412 2.496-1.6 2.831-.19.336-.727 1.26-1.195 2.053-.468.794-.85 1.472-.85 1.508s-.471.858-1.046 1.827c-.575.968-1.046 1.838-1.046 1.933 0 .49-.52.047-1.074-.917" style="fill:#fff;stroke:#000;stroke-width:.617537;stroke-linecap:round;stroke-linejoin:round;stroke-dasharray:none;stroke-opacity:1" transform="translate(-39.158 -91.546)"/><path d="M119.172 170.007c.042-.072.4-.661.794-1.31.395-.649.718-1.21.718-1.247s.588-1.054 1.307-2.261c.718-1.207 1.306-2.23 1.306-2.274s.55-.989 1.22-2.1c.671-1.11 1.22-2.058 1.22-2.105s.588-1.068 1.307-2.268c.718-1.2 1.307-2.208 1.307-2.241 0-.034.588-1.048 1.306-2.255.72-1.207 1.307-2.23 1.307-2.274s.55-.989 1.22-2.1c.67-1.11 1.22-2.048 1.22-2.084s.455-.836 1.01-1.778c.556-.942 1.067-1.831 1.135-1.975.127-.27.274-.52 1.706-2.899.47-.78.853-1.463.853-1.517s.55-1.007 1.22-2.118c.671-1.11 1.22-2.052 1.22-2.09 0-.04.47-.85 1.045-1.803.575-.951 1.046-1.775 1.046-1.83 0-.054.549-1.007 1.22-2.118s1.22-2.056 1.22-2.1c0-.043.587-1.066 1.306-2.273s1.307-2.225 1.307-2.262.325-.598.722-1.247c.398-.648.978-1.65 1.289-2.225.914-1.687 1.207-2.175 1.305-2.177.09 0 1.93 3.008 2.068 3.384.038.103.293.515.566.916.274.4.497.768.497.816 0 .049.941 1.654 2.091 3.567s2.091 3.573 2.091 3.689-.51 1.056-1.132 2.09c-.623 1.034-1.133 1.966-1.133 2.072s-.078.193-.174.193-.175.087-.175.193-.588 1.17-1.306 2.362c-.72 1.193-1.307 2.2-1.307 2.238s-.47.849-1.046 1.8c-.575.952-1.045 1.812-1.045 1.91 0 .1-.063.207-.139.239-.118.05-.907 1.445-.907 1.605 0 .03 3.823.112 8.495.182 7.6.114 8.513.157 8.669.413.095.157.397.68.67 1.162.273.483.999 1.712 1.612 2.732s1.115 1.913 1.115 1.985c0 .071-.228.501-.507.955-.28.454-.803 1.364-1.164 2.023s-.943 1.668-1.293 2.243l-.637 1.046-12.27.09c-6.748.05-12.29.108-12.313.13s-.044.116-.044.208-.549 1.075-1.22 2.186-1.22 2.05-1.22 2.087-.587 1.06-1.306 2.275-1.307 2.234-1.307 2.267c0 .034-.588 1.036-1.307 2.23-.718 1.192-1.307 2.217-1.307 2.277s-.197.422-.437.803l-.438.694h-7.327c-4.03 0-7.292-.06-7.25-.131m1.21-.332c-.118-.048-.353-.05-.523-.006s-.073.083.215.087c.287.004.426-.033.308-.08z" style="fill:#fff;stroke:#000;stroke-width:.610658;stroke-linecap:round;stroke-linejoin:round;stroke-dasharray:none;stroke-opacity:1" transform="translate(-39.158 -91.546)"/><path d="M129.408 203.76c-.582-.964-1.057-1.78-1.057-1.813 0-.034-.674-1.226-1.498-2.65a285 285 0 0 1-2.122-3.72 71 71 0 0 0-1.29-2.224c-.367-.6-.666-1.129-.666-1.174s-.47-.874-1.046-1.843c-.575-.968-1.045-1.79-1.045-1.825 0-.036-.413-.754-.917-1.596a57 57 0 0 1-1.162-2.01l-.245-.48h-8.729c-8.124 0-8.74-.02-8.917-.304-.104-.168-.777-1.324-1.496-2.57-.72-1.246-2.26-3.896-3.425-5.89s-2.118-3.75-2.118-3.905c0-.254.48-.27 5.097-.166 2.803.064 17.074.115 31.713.116 14.776 0 26.616.067 26.616.15 0 .144-.416.92-2.118 3.945-.431.766-1.18 2.1-1.662 2.962a226 226 0 0 1-2.407 4.235l-.83 1.428h-8.427c-6.875 0-8.428.042-8.428.23 0 .127.55 1.155 1.22 2.284.671 1.13 1.22 2.082 1.22 2.117s.353.66.784 1.39.784 1.355.784 1.39c0 .036.47.844 1.046 1.796.575.952 1.045 1.775 1.045 1.83 0 .054.484.899 1.074 1.877l1.074 1.778-.419.8c-.548 1.046-2.68 4.697-3.036 5.2-.272.385-.341.392-3.916.392h-3.64z" style="fill:#fff;stroke:#000;stroke-width:.624152;stroke-linecap:round;stroke-linejoin:round;stroke-dasharray:none;stroke-opacity:1" transform="translate(-39.158 -91.546)"/><path d="M71.807 204.602c-.287-.499-.745-1.303-1.016-1.786a209 209 0 0 0-1.288-2.243c-.786-1.35-.792-1.372-.516-1.917.547-1.081 1.255-2.298 1.47-2.524.12-.127.218-.3.218-.385 0-.084.548-1.062 1.22-2.173.67-1.11 1.22-2.047 1.22-2.081s.587-1.055 1.306-2.27c.719-1.214 1.307-2.237 1.307-2.273s.588-1.042 1.307-2.234c.718-1.193 1.306-2.256 1.306-2.362s.062-.193.137-.193c.074 0 .228-.216.342-.48.113-.263.285-.596.381-.74.643-.956 1.58-2.662 1.58-2.875 0-.14-.3-.747-.668-1.347a68 68 0 0 1-1.112-1.89c-.804-1.443-.92-1.641-1.008-1.73-.048-.047-.232-.36-.41-.696-.57-1.075-1.27-2.308-2.36-4.153-.585-.99-1.063-1.83-1.063-1.867s-.432-.778-.959-1.647c-.527-.87-.958-1.655-.958-1.746s.235-.548.523-1.015c.287-.467.522-.901.522-.965s.196-.424.435-.803c.514-.814 3.05-5.233 3.05-5.315 0-.03.47-.848 1.046-1.816.575-.969 1.047-1.82 1.05-1.89.001-.07.14-.307.308-.525l.305-.396.628 1.093c.346.601.804 1.407 1.019 1.79.214.384.772 1.347 1.24 2.14s.851 1.476.851 1.517.55.983 1.22 2.094c.671 1.11 1.22 2.063 1.22 2.117s.588 1.074 1.307 2.267 1.307 2.196 1.307 2.23c0 .079 3.055 5.372 3.598 6.233.225.357.41.7.41.76s.47.89 1.045 1.842c.575.951 1.045 1.765 1.045 1.807s.47.87 1.046 1.838c.575.968 1.045 1.785 1.045 1.815s.588 1.042 1.307 2.248 1.307 2.274 1.307 2.37.078.174.174.174.174.087.174.194c0 .106.393.842.872 1.636s.87 1.53.87 1.636.08.193.175.193c.096 0 .174.087.174.194 0 .106.384.832.854 1.612 1.429 2.374 1.578 2.628 1.707 2.898.068.144.578 1.027 1.134 1.963s1.01 1.738 1.01 1.783.308.585.684 1.2c.376.614.977 1.654 1.336 2.311.358.657.7 1.234.757 1.282s.199.283.313.523c.233.488 1.117 2.055 1.645 2.919l.347.566h-14.61l-.196-.392c-.227-.456-.919-1.671-2.205-3.877a310 310 0 0 1-3.54-6.186 16 16 0 0 0-.562-.958c-.07-.096-.365-.606-.656-1.133-.974-1.768-1.173-2.089-1.298-2.09-.175-.002-1.008 1.254-1.008 1.52 0 .122-.073.222-.162.222s-.216.167-.281.372-.659 1.268-1.319 2.36c-.66 1.094-1.2 2.02-1.2 2.06 0 .039-.559.996-1.241 2.126-.683 1.13-1.29 2.174-1.35 2.318s-.563 1.027-1.118 1.96l-1.007 1.698h-7.22z" style="fill:#fff;stroke:#000;stroke-width:.633148;stroke-linecap:round;stroke-linejoin:round;stroke-dasharray:none;stroke-opacity:1" transform="translate(-39.158 -91.546)"/><path d="M58.362 181.594c-.3-.503-.74-1.267-.98-1.699-.24-.43-1.28-2.195-2.313-3.92-1.819-3.04-2.854-4.83-3.24-5.6-.198-.397-.33-.14 2.995-5.813.646-1.102 1.35-2.318 1.563-2.701.214-.383.89-1.541 1.5-2.572.613-1.032 1.113-1.913 1.113-1.958s.235-.465.523-.932c.287-.467.522-.939.522-1.048 0-.146-2.26-.199-8.518-.199H43.01l-.286-.566a12 12 0 0 0-.454-.828c-.243-.377-1.587-2.705-2.243-3.885l-.561-1.01.532-.866c.293-.476.533-.897.533-.936 0-.038.47-.867 1.045-1.84.575-.975 1.048-1.824 1.052-1.888.003-.064.152-.293.331-.508l.327-.39 12.154-.045 12.154-.045 1.035-1.742c.57-.959 1.255-2.135 1.523-2.614s.966-1.681 1.55-2.671c.586-.99 1.065-1.83 1.065-1.866s.548-.974 1.22-2.084c.67-1.111 1.219-2.054 1.219-2.097 0-.042.242-.47.538-.95l.537-.874h7.298c6.879 0 7.292.018 7.183.305-.063.168-.767 1.387-1.563 2.71s-1.447 2.432-1.447 2.465-.588 1.054-1.307 2.268c-.719 1.215-1.307 2.238-1.307 2.275s-.549.976-1.22 2.087-1.22 2.055-1.22 2.097c0 .043-.47.87-1.045 1.838s-1.045 1.785-1.045 1.815-.588 1.042-1.307 2.249-1.307 2.23-1.307 2.274c0 .043-.549.988-1.22 2.099-.67 1.11-1.22 2.055-1.22 2.099s-.588 1.067-1.306 2.274c-.72 1.207-1.307 2.224-1.307 2.259s-.44.789-.976 1.674c-.537.885-1.048 1.77-1.135 1.966-.163.367-.283.574-1.74 2.995-.47.78-.854 1.456-.854 1.501 0 .046-.549 1-1.22 2.122-.67 1.12-1.22 2.069-1.22 2.108 0 .038-.416.759-.926 1.6a86 86 0 0 0-1.5 2.577c-.314.575-.984 1.751-1.487 2.613s-1.336 2.294-1.85 3.18-.977 1.612-1.03 1.612c-.052 0-.34-.411-.64-.915" style="fill:#fff;stroke:#000;stroke-width:.61251;stroke-linecap:round;stroke-linejoin:round;stroke-dasharray:none;stroke-opacity:1" transform="translate(-39.158 -91.546)"/><path d="M54.863 125.69c.631-1.068 1.91-3.323 2.84-5.011a467 467 0 0 1 3.947-6.954 857 857 0 0 0 5.34-9.41c6.775-12.123 11.433-20.27 11.81-20.658.255-.262 11.674-.482 31.793-.613 29.542-.193 31.462-.25 32.537-.954 1.774-1.162 2.083-.485-8.928-19.587a6768 6768 0 0 1-5.75-9.994c-1.125-1.961-3.242-5.65-4.705-8.195-6.07-10.567-10.836-19.123-10.771-19.336.071-.234 9.95-17.456 11.534-20.107l.879-1.47 10.94-.282c6.017-.155 11.885-.39 13.04-.524l2.1-.242 1.623 2.812c.892 1.547 6.104 10.544 11.582 19.994s10.582 18.378 11.344 19.84 1.698 3.027 2.081 3.477c.384.45 1.133 1.647 1.666 2.66.532 1.012 3.149 5.73 5.815 10.484 2.666 4.755 4.847 8.79 4.847 8.966s.286.613.635.969c.348.356 1.554 2.277 2.679 4.267s2.48 4.308 3.01 5.15l.966 1.529 12.003.27c6.601.15 19.182.292 27.956.318s18.34.165 21.254.308l5.3.26 1.414 2.455c.777 1.35 3.564 6.136 6.192 10.636s5.989 10.298 7.468 12.886 4.36 7.558 6.402 11.045 3.715 6.479 3.716 6.648-53.031.306-117.851.306H53.716Z" style="fill:#fff;stroke:#000;stroke-width:3.21637799;stroke-linecap:round;stroke-linejoin:round;stroke-dasharray:none;filter:url(#a)" transform="scale(.26458)"/><path d="M344.739 206.279c-.674-1.069-4.863-8.294-9.309-16.056a4362 4362 0 0 0-13.692-23.727 4751 4751 0 0 1-14.513-25.158 8489 8489 0 0 0-14.114-24.545 9885 9885 0 0 1-9.093-15.75c-2.136-3.712-6.709-11.628-10.16-17.59-3.451-5.963-8.56-14.799-11.353-19.636a2918 2918 0 0 0-8.441-14.523 1000 1000 0 0 1-7.392-12.886c-2.217-3.937-5.446-9.552-7.176-12.477-7.11-12.017-11.433-19.823-11.433-20.642 0-.29 8.242-.425 25.891-.425h25.892l4.278 7.457c2.353 4.102 4.67 8.212 5.149 9.134a55 55 0 0 0 1.882 3.28c.556.883 4.004 6.852 7.662 13.264 8.482 14.869 12.55 21.537 13.317 21.831 1.814.696 1.43 1.293 21.51-33.425 8.685-15.016 12.293-20.902 12.977-21.17 1.123-.44 24.613-.494 25.296-.058.259.165 3.359 5.318 6.889 11.451l6.418 11.152-1.315 2.33a385 385 0 0 0-2.655 4.802c-.736 1.36-5.058 8.825-9.604 16.587-13.516 23.081-28.967 49.751-30.521 52.68-1.083 2.041-1.39 3.039-1.212 3.93.247 1.238 3.754 7.586 9.304 16.845 1.762 2.938 3.203 5.462 3.203 5.61 0 .146 1.906 3.54 4.235 7.543 7.347 12.622 14.992 26.204 14.992 26.635 0 .229-3.717 6.92-8.259 14.869s-8.753 15.373-9.358 16.498c-.604 1.125-2.668 4.76-4.585 8.079l-3.486 6.033z" style="fill:#fff;stroke:#000;stroke-width:3.59433076;stroke-linecap:round;stroke-linejoin:round;stroke-dasharray:none;filter:url(#b)" transform="scale(.26458)"/><path d="M307.572 294.16c-.944-.609 2.023-6.734 9.667-19.954l21.732-37.588a23733 23733 0 0 1 22.806-39.34c6.658-11.455 22.99-39.701 36.295-62.77 13.304-23.069 24.464-41.933 24.8-41.92.637.023 2.765 3.52 17.125 28.144l8.667 14.86-2.35 4.231c-4.853 8.732-7.194 12.82-18.14 31.678-6.177 10.642-10.9 19.884-10.496 20.538.455.737 8.076 1.192 20.047 1.195 10.622.003 25.04.341 32.04.752l12.728.748 6.096 10.417 6.095 10.418-6.45 11.392-6.45 11.393h-92.236l-11.38 19.798a15568 15568 0 0 1-16.162 28.058l-4.781 8.261-24.145.284c-13.28.157-24.759-.11-25.508-.594" style="fill:#fff;stroke:#000;stroke-width:3.05763784;stroke-linecap:round;stroke-linejoin:round;stroke-dasharray:none;filter:url(#c)" transform="scale(.26458)"/><path d="M335.543 411.14a23915 23915 0 0 1-22.69-39.63l-12.28-21.5-33.298-.579-33.298-.578-12.521-21.406c-6.887-11.773-12.54-21.821-12.564-22.33-.05-1.071 231.976-.59 233.049.483.393.394-4.683 10.287-11.28 21.985l-11.996 21.268-31.309.307c-23.437.23-31.612.674-32.517 1.764-.89 1.072 2.895 8.608 14.337 28.55 8.55 14.9 15.546 27.225 15.546 27.386 0 .162-2.914 5.27-6.474 11.351l-6.474 11.057h-25.82Z" style="fill:#fff;stroke:#000;stroke-width:3.05763784;stroke-linecap:round;stroke-linejoin:round;stroke-dasharray:none;filter:url(#d)" transform="scale(.26458)"/><path d="M125.882 427.822c-.605-.796-3.608-5.786-6.673-11.09-6.26-10.83-6.347-9.27 1.24-22.175 3.662-6.229 22.417-38.608 32.07-55.364 6.872-11.93 6.89-11.987 5.045-15.62-1.018-2.006-8.346-14.841-16.285-28.523l-14.435-24.877 3.147-5.785c9.309-17.119 21.657-38.688 22.162-38.713.318-.015 4.828 7.387 10.023 16.45s14.248 24.808 20.12 34.99a37479 37479 0 0 1 26.293 45.704 41353 41353 0 0 0 48.33 83.928c6.074 10.522 11.336 19.895 11.694 20.827.559 1.456-2.911 1.694-24.676 1.694h-25.326l-14.768-25.883c-8.122-14.236-15.496-26.863-16.385-28.059-1.577-2.122-1.674-2.118-3.935.14-1.276 1.272-5.39 7.78-9.145 14.462s-10.412 18.267-14.793 25.745l-7.967 13.595H139.3c-8.497 0-12.66-.448-13.418-1.446" style="fill:#fff;stroke:#000;stroke-width:3.05763784;stroke-linecap:round;stroke-linejoin:round;stroke-dasharray:none;filter:url(#e)" transform="scale(.26458)"/><path d="M67.953 329.448a5102 5102 0 0 0-12.424-21.601l-6.325-10.923 3.91-7.012c2.15-3.856 9.167-16.123 15.592-27.26s11.69-20.9 11.696-21.695c.017-1.815 2.632-1.625-34.058-2.467l-31.178-.715-6.015-10.413c-4.94-8.553-5.8-10.827-4.813-12.728.66-1.273 3.467-6.266 6.236-11.095l5.034-8.782 30.38-.762c16.707-.419 37.667-.77 46.577-.78l16.198-.019 8.84-15.315a39098 39098 0 0 1 16.036-27.753l7.196-12.438h52.004l-2.272 3.76c-1.249 2.068-6.166 10.53-10.927 18.802s-20.103 34.828-34.094 59.01l-35.809 61.903c-29.945 51.783-34.223 59.008-34.924 58.985-.419-.013-3.506-4.83-6.86-10.702" style="fill:#fff;stroke:#000;stroke-width:3.05763784;stroke-linecap:round;stroke-linejoin:round;stroke-dasharray:none;filter:url(#f)" transform="scale(.26458)"/></svg>