<?xml version="1.0" encoding="UTF-8" standalone="no"?>
<!-- Created with Inkscape (http://www.inkscape.org/) -->

<svg
   width="131.66547mm"
   height="114.28062mm"
   viewBox="0 0 131.66547 114.28062"
   version="1.1"
   id="svg1"
   inkscape:version="1.3.2 (091e20ef0f, 2023-11-25)"
   sodipodi:docname="nix.svg"
   xmlns:inkscape="http://www.inkscape.org/namespaces/inkscape"
   xmlns:sodipodi="http://sodipodi.sourceforge.net/DTD/sodipodi-0.dtd"
   xmlns="http://www.w3.org/2000/svg"
   xmlns:svg="http://www.w3.org/2000/svg">
  <sodipodi:namedview
     id="namedview1"
     pagecolor="#ffffff"
     bordercolor="#000000"
     borderopacity="0.25"
     inkscape:showpageshadow="2"
     inkscape:pageopacity="0.0"
     inkscape:pagecheckerboard="0"
     inkscape:deskcolor="#d1d1d1"
     inkscape:document-units="mm"
     inkscape:zoom="1.2222503"
     inkscape:cx="145.22394"
     inkscape:cy="191.85923"
     inkscape:window-width="1600"
     inkscape:window-height="873"
     inkscape:window-x="0"
     inkscape:window-y="0"
     inkscape:window-maximized="1"
     inkscape:current-layer="layer1" />
  <defs
     id="defs1">
    <filter
       inkscape:label="Bright Metal"
       inkscape:menu="Bevels"
       inkscape:menu-tooltip="Bright metallic effect for any color"
       style="color-interpolation-filters:sRGB;"
       id="filter134"
       x="-0.3510199"
       y="-0.32761327"
       width="1.702223"
       height="1.6552286">
      <feBlend
         in2="SourceGraphic"
         mode="normal"
         result="result3"
         id="feBlend131" />
      <feComposite
         result="result4"
         operator="arithmetic"
         k2="1"
         in2="result3"
         id="feComposite131" />
      <feColorMatrix
         in="result4"
         result="result0"
         values="1 0 0 0 0 0 1 0 0 0 0 0 1 0 0 0 0 0 0.85 0 "
         id="feColorMatrix131" />
      <feGaussianBlur
         stdDeviation="7"
         in="SourceAlpha"
         id="feGaussianBlur131" />
      <feSpecularLighting
         result="result1"
         specularExponent="25"
         specularConstant="1"
         surfaceScale="5"
         id="feSpecularLighting131">
        <feDistantLight
           azimuth="225"
           elevation="60"
           id="feDistantLight131" />
      </feSpecularLighting>
      <feComposite
         in2="result0"
         k1="0.5"
         k2="1"
         operator="arithmetic"
         k3="0.5"
         id="feComposite132" />
      <feComposite
         result="result2"
         in2="result0"
         operator="atop"
         id="feComposite133" />
      <feComposite
         operator="in"
         in2="SourceGraphic"
         id="feComposite134"
         result="fbSourceGraphic" />
      <feColorMatrix
         result="fbSourceGraphicAlpha"
         in="fbSourceGraphic"
         values="0 0 0 -1 0 0 0 0 -1 0 0 0 0 -1 0 0 0 0 1 0"
         id="feColorMatrix154" />
      <feGaussianBlur
         id="feGaussianBlur154"
         result="result6"
         stdDeviation="8"
         in="fbSourceGraphic" />
      <feComposite
         id="feComposite155"
         in2="fbSourceGraphic"
         in="result6"
         operator="xor"
         result="result10" />
      <feGaussianBlur
         id="feGaussianBlur155"
         result="result2"
         stdDeviation="8" />
      <feComposite
         id="feComposite156"
         in2="fbSourceGraphic"
         operator="atop"
         in="result10"
         result="result91" />
      <feComposite
         id="feComposite157"
         result="result4"
         in="result2"
         operator="xor"
         in2="result91" />
      <feGaussianBlur
         id="feGaussianBlur157"
         in="result4"
         result="result3"
         stdDeviation="4" />
      <feSpecularLighting
         id="feSpecularLighting157"
         result="result5"
         specularExponent="5"
         specularConstant="1.1"
         surfaceScale="18">
        <feDistantLight
           id="feDistantLight157"
           azimuth="235"
           elevation="55" />
      </feSpecularLighting>
      <feComposite
         id="feComposite158"
         in="result3"
         k3="1.1"
         k2="0.5"
         operator="arithmetic"
         result="result7"
         in2="result5"
         k1="0.5" />
      <feComposite
         id="feComposite159"
         in="result7"
         operator="atop"
         in2="fbSourceGraphic"
         result="result8" />
    </filter>
    <filter
       inkscape:label="Bright Metal"
       inkscape:menu="Bevels"
       inkscape:menu-tooltip="Bright metallic effect for any color"
       style="color-interpolation-filters:sRGB;"
       id="filter138"
       x="-0.43059327"
       y="-0.32579952"
       width="1.8610788"
       height="1.6515909">
      <feBlend
         in2="SourceGraphic"
         mode="normal"
         result="result3"
         id="feBlend134" />
      <feComposite
         result="result4"
         operator="arithmetic"
         k2="1"
         in2="result3"
         id="feComposite135" />
      <feColorMatrix
         in="result4"
         result="result0"
         values="1 0 0 0 0 0 1 0 0 0 0 0 1 0 0 0 0 0 0.85 0 "
         id="feColorMatrix135" />
      <feGaussianBlur
         stdDeviation="7"
         in="SourceAlpha"
         id="feGaussianBlur135" />
      <feSpecularLighting
         result="result1"
         specularExponent="25"
         specularConstant="1"
         surfaceScale="5"
         id="feSpecularLighting135">
        <feDistantLight
           azimuth="225"
           elevation="60"
           id="feDistantLight135" />
      </feSpecularLighting>
      <feComposite
         in2="result0"
         k1="0.5"
         k2="1"
         operator="arithmetic"
         k3="0.5"
         id="feComposite136" />
      <feComposite
         result="result2"
         in2="result0"
         operator="atop"
         id="feComposite137" />
      <feComposite
         operator="in"
         in2="SourceGraphic"
         id="feComposite138"
         result="fbSourceGraphic" />
      <feColorMatrix
         result="fbSourceGraphicAlpha"
         in="fbSourceGraphic"
         values="0 0 0 -1 0 0 0 0 -1 0 0 0 0 -1 0 0 0 0 1 0"
         id="feColorMatrix159" />
      <feGaussianBlur
         id="feGaussianBlur159"
         result="result6"
         stdDeviation="8"
         in="fbSourceGraphic" />
      <feComposite
         id="feComposite160"
         in2="fbSourceGraphic"
         in="result6"
         operator="xor"
         result="result10" />
      <feGaussianBlur
         id="feGaussianBlur160"
         result="result2"
         stdDeviation="8" />
      <feComposite
         id="feComposite161"
         in2="fbSourceGraphic"
         operator="atop"
         in="result10"
         result="result91" />
      <feComposite
         id="feComposite162"
         result="result4"
         in="result2"
         operator="xor"
         in2="result91" />
      <feGaussianBlur
         id="feGaussianBlur162"
         in="result4"
         result="result3"
         stdDeviation="4" />
      <feSpecularLighting
         id="feSpecularLighting162"
         result="result5"
         specularExponent="5"
         specularConstant="1.1"
         surfaceScale="18">
        <feDistantLight
           id="feDistantLight162"
           azimuth="235"
           elevation="55" />
      </feSpecularLighting>
      <feComposite
         id="feComposite163"
         in="result3"
         k3="1.1"
         k2="0.5"
         operator="arithmetic"
         result="result7"
         in2="result5"
         k1="0.5" />
      <feComposite
         id="feComposite164"
         in="result7"
         operator="atop"
         in2="fbSourceGraphic"
         result="result8" />
    </filter>
    <filter
       inkscape:label="Bright Metal"
       inkscape:menu="Bevels"
       inkscape:menu-tooltip="Bright metallic effect for any color"
       style="color-interpolation-filters:sRGB;"
       id="filter142"
       x="-0.28457987"
       y="-0.53168096"
       width="1.5691698"
       height="2.0633619">
      <feBlend
         in2="SourceGraphic"
         mode="normal"
         result="result3"
         id="feBlend138" />
      <feComposite
         result="result4"
         operator="arithmetic"
         k2="1"
         in2="result3"
         id="feComposite139" />
      <feColorMatrix
         in="result4"
         result="result0"
         values="1 0 0 0 0 0 1 0 0 0 0 0 1 0 0 0 0 0 0.85 0 "
         id="feColorMatrix139" />
      <feGaussianBlur
         stdDeviation="7"
         in="SourceAlpha"
         id="feGaussianBlur139" />
      <feSpecularLighting
         result="result1"
         specularExponent="25"
         specularConstant="1"
         surfaceScale="5"
         id="feSpecularLighting139">
        <feDistantLight
           azimuth="225"
           elevation="60"
           id="feDistantLight139" />
      </feSpecularLighting>
      <feComposite
         in2="result0"
         k1="0.5"
         k2="1"
         operator="arithmetic"
         k3="0.5"
         id="feComposite140" />
      <feComposite
         result="result2"
         in2="result0"
         operator="atop"
         id="feComposite141" />
      <feComposite
         operator="in"
         in2="SourceGraphic"
         id="feComposite142"
         result="fbSourceGraphic" />
      <feColorMatrix
         result="fbSourceGraphicAlpha"
         in="fbSourceGraphic"
         values="0 0 0 -1 0 0 0 0 -1 0 0 0 0 -1 0 0 0 0 1 0"
         id="feColorMatrix164" />
      <feGaussianBlur
         id="feGaussianBlur164"
         result="result6"
         stdDeviation="8"
         in="fbSourceGraphic" />
      <feComposite
         id="feComposite165"
         in2="fbSourceGraphic"
         in="result6"
         operator="xor"
         result="result10" />
      <feGaussianBlur
         id="feGaussianBlur165"
         result="result2"
         stdDeviation="8" />
      <feComposite
         id="feComposite166"
         in2="fbSourceGraphic"
         operator="atop"
         in="result10"
         result="result91" />
      <feComposite
         id="feComposite167"
         result="result4"
         in="result2"
         operator="xor"
         in2="result91" />
      <feGaussianBlur
         id="feGaussianBlur167"
         in="result4"
         result="result3"
         stdDeviation="4" />
      <feSpecularLighting
         id="feSpecularLighting167"
         result="result5"
         specularExponent="5"
         specularConstant="1.1"
         surfaceScale="18">
        <feDistantLight
           id="feDistantLight167"
           azimuth="235"
           elevation="55" />
      </feSpecularLighting>
      <feComposite
         id="feComposite168"
         in="result3"
         k3="1.1"
         k2="0.5"
         operator="arithmetic"
         result="result7"
         in2="result5"
         k1="0.5" />
      <feComposite
         id="feComposite169"
         in="result7"
         operator="atop"
         in2="fbSourceGraphic"
         result="result8" />
    </filter>
    <filter
       inkscape:label="Bright Metal"
       inkscape:menu="Bevels"
       inkscape:menu-tooltip="Bright metallic effect for any color"
       style="color-interpolation-filters:sRGB;"
       id="filter146"
       x="-0.35416495"
       y="-0.3280097"
       width="1.7083302"
       height="1.6560249">
      <feBlend
         in2="SourceGraphic"
         mode="normal"
         result="result3"
         id="feBlend142" />
      <feComposite
         result="result4"
         operator="arithmetic"
         k2="1"
         in2="result3"
         id="feComposite143" />
      <feColorMatrix
         in="result4"
         result="result0"
         values="1 0 0 0 0 0 1 0 0 0 0 0 1 0 0 0 0 0 0.85 0 "
         id="feColorMatrix143" />
      <feGaussianBlur
         stdDeviation="7"
         in="SourceAlpha"
         id="feGaussianBlur143" />
      <feSpecularLighting
         result="result1"
         specularExponent="25"
         specularConstant="1"
         surfaceScale="5"
         id="feSpecularLighting143">
        <feDistantLight
           azimuth="225"
           elevation="60"
           id="feDistantLight143" />
      </feSpecularLighting>
      <feComposite
         in2="result0"
         k1="0.5"
         k2="1"
         operator="arithmetic"
         k3="0.5"
         id="feComposite144" />
      <feComposite
         result="result2"
         in2="result0"
         operator="atop"
         id="feComposite145" />
      <feComposite
         operator="in"
         in2="SourceGraphic"
         id="feComposite146"
         result="fbSourceGraphic" />
      <feColorMatrix
         result="fbSourceGraphicAlpha"
         in="fbSourceGraphic"
         values="0 0 0 -1 0 0 0 0 -1 0 0 0 0 -1 0 0 0 0 1 0"
         id="feColorMatrix169" />
      <feGaussianBlur
         id="feGaussianBlur169"
         result="result6"
         stdDeviation="8"
         in="fbSourceGraphic" />
      <feComposite
         id="feComposite170"
         in2="fbSourceGraphic"
         in="result6"
         operator="xor"
         result="result10" />
      <feGaussianBlur
         id="feGaussianBlur170"
         result="result2"
         stdDeviation="8" />
      <feComposite
         id="feComposite171"
         in2="fbSourceGraphic"
         operator="atop"
         in="result10"
         result="result91" />
      <feComposite
         id="feComposite172"
         result="result4"
         in="result2"
         operator="xor"
         in2="result91" />
      <feGaussianBlur
         id="feGaussianBlur172"
         in="result4"
         result="result3"
         stdDeviation="4" />
      <feSpecularLighting
         id="feSpecularLighting172"
         result="result5"
         specularExponent="5"
         specularConstant="1.1"
         surfaceScale="18">
        <feDistantLight
           id="feDistantLight172"
           azimuth="235"
           elevation="55" />
      </feSpecularLighting>
      <feComposite
         id="feComposite173"
         in="result3"
         k3="1.1"
         k2="0.5"
         operator="arithmetic"
         result="result7"
         in2="result5"
         k1="0.5" />
      <feComposite
         id="feComposite174"
         in="result7"
         operator="atop"
         in2="fbSourceGraphic"
         result="result8" />
    </filter>
    <filter
       inkscape:label="Bright Metal"
       inkscape:menu="Bevels"
       inkscape:menu-tooltip="Bright metallic effect for any color"
       style="color-interpolation-filters:sRGB;"
       id="filter150"
       x="-0.42375084"
       y="-0.32429836"
       width="1.8475015"
       height="1.6485959">
      <feBlend
         in2="SourceGraphic"
         mode="normal"
         result="result3"
         id="feBlend146" />
      <feComposite
         result="result4"
         operator="arithmetic"
         k2="1"
         in2="result3"
         id="feComposite147" />
      <feColorMatrix
         in="result4"
         result="result0"
         values="1 0 0 0 0 0 1 0 0 0 0 0 1 0 0 0 0 0 0.85 0 "
         id="feColorMatrix147" />
      <feGaussianBlur
         stdDeviation="7"
         in="SourceAlpha"
         id="feGaussianBlur147" />
      <feSpecularLighting
         result="result1"
         specularExponent="25"
         specularConstant="1"
         surfaceScale="5"
         id="feSpecularLighting147">
        <feDistantLight
           azimuth="225"
           elevation="60"
           id="feDistantLight147" />
      </feSpecularLighting>
      <feComposite
         in2="result0"
         k1="0.5"
         k2="1"
         operator="arithmetic"
         k3="0.5"
         id="feComposite148" />
      <feComposite
         result="result2"
         in2="result0"
         operator="atop"
         id="feComposite149" />
      <feComposite
         operator="in"
         in2="SourceGraphic"
         id="feComposite150"
         result="fbSourceGraphic" />
      <feColorMatrix
         result="fbSourceGraphicAlpha"
         in="fbSourceGraphic"
         values="0 0 0 -1 0 0 0 0 -1 0 0 0 0 -1 0 0 0 0 1 0"
         id="feColorMatrix174" />
      <feGaussianBlur
         id="feGaussianBlur174"
         result="result6"
         stdDeviation="8"
         in="fbSourceGraphic" />
      <feComposite
         id="feComposite175"
         in2="fbSourceGraphic"
         in="result6"
         operator="xor"
         result="result10" />
      <feGaussianBlur
         id="feGaussianBlur175"
         result="result2"
         stdDeviation="8" />
      <feComposite
         id="feComposite176"
         in2="fbSourceGraphic"
         operator="atop"
         in="result10"
         result="result91" />
      <feComposite
         id="feComposite177"
         result="result4"
         in="result2"
         operator="xor"
         in2="result91" />
      <feGaussianBlur
         id="feGaussianBlur177"
         in="result4"
         result="result3"
         stdDeviation="4" />
      <feSpecularLighting
         id="feSpecularLighting177"
         result="result5"
         specularExponent="5"
         specularConstant="1.1"
         surfaceScale="18">
        <feDistantLight
           id="feDistantLight177"
           azimuth="235"
           elevation="55" />
      </feSpecularLighting>
      <feComposite
         id="feComposite178"
         in="result3"
         k3="1.1"
         k2="0.5"
         operator="arithmetic"
         result="result7"
         in2="result5"
         k1="0.5" />
      <feComposite
         id="feComposite179"
         in="result7"
         operator="atop"
         in2="fbSourceGraphic"
         result="result8" />
    </filter>
    <filter
       inkscape:label="Bright Metal"
       inkscape:menu="Bevels"
       inkscape:menu-tooltip="Bright metallic effect for any color"
       style="color-interpolation-filters:sRGB;"
       id="filter154"
       x="-0.28174132"
       y="-0.53007643"
       width="1.5634829"
       height="2.060153">
      <feBlend
         in2="SourceGraphic"
         mode="normal"
         result="result3"
         id="feBlend150" />
      <feComposite
         result="result4"
         operator="arithmetic"
         k2="1"
         in2="result3"
         id="feComposite151" />
      <feColorMatrix
         in="result4"
         result="result0"
         values="1 0 0 0 0 0 1 0 0 0 0 0 1 0 0 0 0 0 0.85 0 "
         id="feColorMatrix151" />
      <feGaussianBlur
         stdDeviation="7"
         in="SourceAlpha"
         id="feGaussianBlur151" />
      <feSpecularLighting
         result="result1"
         specularExponent="25"
         specularConstant="1"
         surfaceScale="5"
         id="feSpecularLighting151">
        <feDistantLight
           azimuth="225"
           elevation="60"
           id="feDistantLight151" />
      </feSpecularLighting>
      <feComposite
         in2="result0"
         k1="0.5"
         k2="1"
         operator="arithmetic"
         k3="0.5"
         id="feComposite152" />
      <feComposite
         result="result2"
         in2="result0"
         operator="atop"
         id="feComposite153" />
      <feComposite
         operator="in"
         in2="SourceGraphic"
         id="feComposite154"
         result="fbSourceGraphic" />
      <feColorMatrix
         result="fbSourceGraphicAlpha"
         in="fbSourceGraphic"
         values="0 0 0 -1 0 0 0 0 -1 0 0 0 0 -1 0 0 0 0 1 0"
         id="feColorMatrix179" />
      <feGaussianBlur
         id="feGaussianBlur179"
         result="result6"
         stdDeviation="8"
         in="fbSourceGraphic" />
      <feComposite
         id="feComposite180"
         in2="fbSourceGraphic"
         in="result6"
         operator="xor"
         result="result10" />
      <feGaussianBlur
         id="feGaussianBlur180"
         result="result2"
         stdDeviation="8" />
      <feComposite
         id="feComposite181"
         in2="fbSourceGraphic"
         operator="atop"
         in="result10"
         result="result91" />
      <feComposite
         id="feComposite182"
         result="result4"
         in="result2"
         operator="xor"
         in2="result91" />
      <feGaussianBlur
         id="feGaussianBlur182"
         in="result4"
         result="result3"
         stdDeviation="4" />
      <feSpecularLighting
         id="feSpecularLighting182"
         result="result5"
         specularExponent="5"
         specularConstant="1.1"
         surfaceScale="18">
        <feDistantLight
           id="feDistantLight182"
           azimuth="235"
           elevation="55" />
      </feSpecularLighting>
      <feComposite
         id="feComposite183"
         in="result3"
         k3="1.1"
         k2="0.5"
         operator="arithmetic"
         result="result7"
         in2="result5"
         k1="0.5" />
      <feComposite
         id="feComposite184"
         in="result7"
         operator="atop"
         in2="fbSourceGraphic"
         result="result8" />
    </filter>
  </defs>
  <g
     inkscape:label="Layer 1"
     inkscape:groupmode="layer"
     id="layer1"
     transform="translate(-39.158334,-91.545833)">
    <path
       style="fill:#ffffff;stroke:#000000;stroke-width:0.616215;stroke-linecap:round;stroke-linejoin:round;stroke-dasharray:none;stroke-opacity:1"
       d="m 53.51418,124.38323 c 0.429631,-0.72669 0.781147,-1.3512 0.781147,-1.3878 0,-0.0366 0.352852,-0.64774 0.784115,-1.35809 0.431262,-0.71035 0.784114,-1.33764 0.784114,-1.39398 0,-0.0563 0.352851,-0.68363 0.784114,-1.39398 0.431263,-0.71035 0.784114,-1.34198 0.784114,-1.40362 0,-0.0617 0.184249,-0.40457 0.409443,-0.76205 0.225193,-0.35748 0.707054,-1.19885 1.0708,-1.8697 0.363747,-0.67085 0.737979,-1.31775 0.831626,-1.43754 0.132077,-0.16896 2.080603,-0.21781 8.687065,-0.21781 6.697511,0 8.516702,-0.0465 8.51635,-0.21781 -2.46e-4,-0.1198 -0.274686,-0.67261 -0.609868,-1.22846 -0.335182,-0.55586 -0.60942,-1.03864 -0.60942,-1.07284 0,-0.0342 -0.470466,-0.85451 -1.045485,-1.82291 -0.575016,-0.9684 -1.045485,-1.79626 -1.045485,-1.83968 0,-0.0434 -0.430083,-0.78824 -0.955741,-1.65512 -0.525656,-0.86689 -1.124276,-1.9086 -1.330264,-2.31491 -0.205989,-0.40631 -0.424395,-0.77795 -0.485349,-0.82587 -0.06095,-0.0479 -0.205619,-0.28315 -0.321477,-0.52274 -0.227891,-0.47127 -0.721759,-1.353 -1.48603,-2.653085 l -0.484042,-0.823395 0.411181,-0.657667 c 0.226148,-0.361717 0.667383,-1.128135 0.98052,-1.703152 0.313139,-0.575017 0.93318,-1.653174 1.37787,-2.395905 l 0.808525,-1.350419 1.221586,-6.37e-4 c 0.67187,-3.52e-4 2.319343,-0.05002 3.66105,-0.110379 l 2.439467,-0.109741 0.784114,1.36471 c 0.431262,0.75059 1.008133,1.7608 1.281935,2.244911 0.533402,0.943113 1.76158,3.054825 3.519501,6.051379 0.600291,1.02325 1.143026,2.023 1.206076,2.22165 0.06305,0.19866 0.187764,0.36119 0.277143,0.36119 0.08938,0 0.162505,0.0797 0.162505,0.17701 0,0.0974 0.705702,1.39846 1.568227,2.89136 0.862526,1.49289 1.568231,2.78544 1.568231,2.87233 0,0.0869 0.07841,0.15797 0.174246,0.15797 0.09584,0 0.176411,0.098 0.179055,0.21781 0.0026,0.11979 0.342111,0.76669 0.754372,1.43754 l 0.749567,1.21973 8.759662,0.0871 8.75966,0.0871 0.41689,0.69699 c 0.2293,0.38335 0.47167,0.81461 0.53861,0.95836 0.0669,0.14376 0.65556,1.14705 1.30804,2.22956 0.65249,1.0825 1.18633,2.00392 1.18633,2.04762 0,0.0437 0.61821,1.11829 1.37379,2.388 1.57938,2.65405 2.28541,3.90244 2.28541,4.04102 0,0.0534 -14.30875,0.0971 -31.797217,0.0971 h -31.79722 z"
       id="path1" />
    <path
       style="fill:#ffffff;stroke:#000000;stroke-width:0.617537;stroke-linecap:round;stroke-linejoin:round;stroke-dasharray:none;stroke-opacity:1"
       d="m 129.88983,146.04789 c -0.34426,-0.59898 -0.80021,-1.40269 -1.01322,-1.78604 -0.21301,-0.38334 -0.64383,-1.12825 -0.95736,-1.65535 -0.31354,-0.5271 -0.78534,-1.35042 -1.04845,-1.8296 -0.43685,-0.7956 -1.26606,-2.22677 -3.8364,-6.62141 -0.50447,-0.86252 -1.07088,-1.84267 -1.25868,-2.17809 -0.1878,-0.33543 -1.11182,-1.94286 -2.05337,-3.57208 -0.94156,-1.62921 -2.04008,-3.55029 -2.44117,-4.26906 -0.40108,-0.71878 -1.05419,-1.83752 -1.45134,-2.4861 -0.39716,-0.64858 -0.7221,-1.21569 -0.7221,-1.26023 0,-0.0445 -0.29977,-0.57244 -0.66616,-1.1731 -0.36638,-0.60066 -0.92334,-1.56259 -1.23769,-2.1376 -0.31435,-0.57502 -1.10084,-1.94722 -1.74776,-3.04934 -1.88125,-3.20499 -3.07253,-5.25603 -3.54218,-6.09866 -0.24037,-0.43126 -0.91562,-1.59422 -1.50055,-2.58435 -0.58494,-0.99013 -1.06353,-1.82576 -1.06353,-1.85695 0,-0.0312 -0.47047,-0.84904 -1.04548,-1.81744 -0.57502,-0.9684 -1.04549,-1.796258 -1.04549,-1.839686 0,-0.04343 -0.4189,-0.769784 -0.93088,-1.614125 -0.51199,-0.844341 -1.14857,-1.925255 -1.41464,-2.402031 -0.26606,-0.476776 -0.8374,-1.480147 -1.269632,-2.229714 -0.4905,-0.850616 -0.72431,-1.424413 -0.622075,-1.526649 0.0984,-0.0984 3.006237,-0.145616 7.282967,-0.118256 l 7.11918,0.04554 1.19045,2.079056 c 0.65475,1.143482 1.19046,2.10264 1.19046,2.131464 0,0.02882 0.32494,0.583066 0.7221,1.231648 0.39715,0.648582 1.05068,1.767326 1.45227,2.486097 2.14506,3.839176 3.79495,6.621406 3.92657,6.621406 0.138,0 1.2857,-1.8323 2.29202,-3.6592 0.23756,-0.43126 1.5429,-2.68202 2.90077,-5.001666 1.35787,-2.319656 2.6347,-4.515175 2.8374,-4.878933 0.64349,-1.154763 0.41959,-1.096996 4.25199,-1.096996 2.61655,0 3.57344,0.05633 3.69967,0.217809 0.0936,0.119795 0.44773,0.727484 0.78684,1.350419 0.33911,0.622935 1.09541,1.937244 1.68067,2.920685 0.58525,0.983442 1.06409,1.876501 1.06409,1.984576 0,0.108075 -0.23523,0.578804 -0.52274,1.046065 -0.28751,0.467261 -0.52274,0.887681 -0.52274,0.934281 0,0.0466 -0.61305,1.12357 -1.36234,2.39328 -0.74928,1.26972 -2.09171,3.56316 -2.98317,5.09653 -0.89146,1.53338 -2.14947,3.6897 -2.79559,4.79181 -0.64611,1.10212 -1.37024,2.3567 -1.60918,2.78797 -0.23893,0.43126 -0.83783,1.46507 -1.33087,2.29736 -0.49305,0.83229 -0.89625,1.61641 -0.896,1.74248 2.4e-4,0.12607 0.27469,0.68401 0.60986,1.23987 0.33519,0.55586 0.60942,1.04317 0.60942,1.08292 0,0.0397 0.43127,0.78349 0.95837,1.65275 0.5271,0.86927 0.95836,1.61453 0.95836,1.65614 0,0.0416 0.38345,0.72495 0.85211,1.51854 0.46865,0.79358 1.07634,1.83772 1.35041,2.32029 0.27408,0.48257 1.1116,1.95309 1.86117,3.26781 l 1.36285,2.39041 -1.25779,2.22099 c -0.69179,1.22154 -1.41221,2.49542 -1.60092,2.83085 -0.18872,0.33543 -0.72607,1.25917 -1.19411,2.05276 -0.46804,0.79358 -0.85098,1.47239 -0.85098,1.50845 0,0.0361 -0.47047,0.85789 -1.04548,1.82629 -0.57502,0.9684 -1.04549,1.83822 -1.04549,1.93294 0,0.49117 -0.52044,0.0471 -1.07444,-0.91684 z"
       id="path2" />
    <path
       style="fill:#ffffff;stroke:#000000;stroke-width:0.610658;stroke-linecap:round;stroke-linejoin:round;stroke-dasharray:none;stroke-opacity:1"
       d="m 119.17155,170.00694 c 0.0422,-0.0719 0.39966,-0.66135 0.7944,-1.30993 0.39474,-0.64858 0.71771,-1.20952 0.71771,-1.24654 0,-0.037 0.58809,-1.05483 1.30686,-2.26183 0.71877,-1.20699 1.30686,-2.23033 1.30686,-2.27408 0,-0.0437 0.54887,-0.98838 1.21973,-2.09919 0.67085,-1.1108 1.21973,-2.05835 1.21973,-2.10567 0,-0.0473 0.58809,-1.06771 1.30686,-2.26753 0.71877,-1.19982 1.30686,-2.20857 1.30686,-2.24165 0,-0.0331 0.58808,-1.0477 1.30685,-2.25469 0.71877,-1.207 1.30686,-2.23033 1.30686,-2.27408 0,-0.0438 0.54888,-0.98839 1.21973,-2.09919 0.67086,-1.11081 1.21974,-2.04891 1.21974,-2.08467 0,-0.0358 0.45481,-0.83593 1.0107,-1.77815 0.55589,-0.94221 1.06624,-1.83072 1.13411,-1.97448 0.12781,-0.27072 0.27456,-0.52004 1.7064,-2.89928 0.46941,-0.78 0.85347,-1.46255 0.85347,-1.51677 0,-0.0542 0.54888,-1.00743 1.21973,-2.11823 0.67086,-1.11081 1.21974,-2.05165 1.21974,-2.09077 0,-0.0391 0.47047,-0.84991 1.04548,-1.80176 0.57502,-0.95186 1.04549,-1.77527 1.04549,-1.82981 0,-0.0545 0.54888,-1.008 1.21973,-2.1188 0.67085,-1.11081 1.21974,-2.05544 1.21974,-2.09919 0,-0.0438 0.58808,-1.06709 1.30685,-2.27409 0.71877,-1.20699 1.30686,-2.22481 1.30686,-2.26182 0,-0.037 0.32505,-0.59796 0.72234,-1.24654 0.39729,-0.64858 0.97717,-1.64971 1.28864,-2.22473 0.91385,-1.68709 1.20684,-2.17582 1.30513,-2.17699 0.0901,-0.001 1.92929,3.00799 2.06784,3.38309 0.0382,0.10334 0.29301,0.51566 0.56631,0.91627 0.27329,0.40061 0.4969,0.76803 0.4969,0.81649 0,0.0485 0.94094,1.65355 2.09097,3.56687 1.15003,1.91331 2.09097,3.57329 2.09097,3.68884 0,0.11554 -0.50967,1.05599 -1.13261,2.08989 -0.62293,1.0339 -1.13261,1.96653 -1.13261,2.07252 0,0.10598 -0.0784,0.1927 -0.17424,0.1927 -0.0958,0 -0.17425,0.0869 -0.17425,0.19319 0,0.10626 -0.58809,1.169 -1.30686,2.36165 -0.71877,1.19266 -1.30686,2.19983 -1.30686,2.23817 0,0.0383 -0.47047,0.8485 -1.04548,1.80036 -0.57502,0.95185 -1.04549,1.81149 -1.04549,1.9103 0,0.0988 -0.0623,0.20581 -0.13849,0.23775 -0.11829,0.0496 -0.90699,1.44562 -0.90699,1.60539 0,0.0305 3.82256,0.1125 8.49457,0.1822 7.60056,0.11339 8.51291,0.1568 8.66882,0.41249 0.0958,0.15717 0.39763,0.68045 0.67066,1.16285 0.27304,0.4824 0.99834,1.71171 1.6118,2.7318 0.61345,1.02009 1.11536,1.91315 1.11536,1.98458 0,0.0714 -0.22848,0.50121 -0.50775,0.95507 -0.27926,0.45385 -0.80294,1.36426 -1.16372,2.02311 -0.36079,0.65886 -0.94259,1.66839 -1.2929,2.24341 l -0.63692,1.04549 -12.26985,0.0901 c -6.74841,0.0495 -12.28945,0.10835 -12.31341,0.13069 -0.024,0.0223 -0.0436,0.11548 -0.0436,0.20697 0,0.0915 -0.54888,1.07519 -1.21973,2.18599 -0.67085,1.1108 -1.21973,2.04992 -1.21973,2.08692 0,0.037 -0.58809,1.06075 -1.30686,2.27498 -0.71877,1.21424 -1.30686,2.23477 -1.30686,2.26786 0,0.0331 -0.58808,1.03596 -1.30685,2.22861 -0.71877,1.19265 -1.30686,2.21775 -1.30686,2.27799 0,0.0602 -0.19701,0.42162 -0.43781,0.80306 l -0.4378,0.69353 h -7.3265 c -4.02957,0 -7.29199,-0.0588 -7.24981,-0.13068 z m 1.21049,-0.33211 c -0.11797,-0.0477 -0.3532,-0.0506 -0.52274,-0.006 -0.16954,0.0442 -0.073,0.0832 0.2145,0.0868 0.2875,0.004 0.42622,-0.0326 0.30824,-0.0803 z"
       id="path3" />
    <path
       style="fill:#ffffff;stroke:#000000;stroke-width:0.624152;stroke-linecap:round;stroke-linejoin:round;stroke-dasharray:none;stroke-opacity:1"
       d="m 129.40808,203.7593 c -0.58164,-0.96282 -1.05752,-1.77845 -1.05752,-1.81252 0,-0.0341 -0.67401,-1.22619 -1.49779,-2.64917 -0.82378,-1.42298 -1.77869,-3.09691 -2.12201,-3.71984 -0.34333,-0.62294 -0.92391,-1.62406 -1.29018,-2.22473 -0.36627,-0.60066 -0.66595,-1.12902 -0.66595,-1.17413 0,-0.0451 -0.47047,-0.87434 -1.04548,-1.84274 -0.57502,-0.9684 -1.04549,-1.78988 -1.04549,-1.82551 0,-0.0356 -0.41246,-0.75365 -0.91657,-1.59558 -0.50412,-0.84194 -1.02704,-1.74643 -1.16205,-2.00998 l -0.24549,-0.47918 h -8.72814 c -8.12431,0 -8.74123,-0.0211 -8.91727,-0.30493 -0.10402,-0.16771 -0.777453,-1.32428 -1.496519,-2.57015 -0.719066,-1.24587 -2.260254,-3.89621 -3.424865,-5.88963 -1.164608,-1.99343 -2.117471,-3.75072 -2.117471,-3.90508 0,-0.25429 0.479176,-0.26987 5.09674,-0.1658 2.803215,0.0632 17.074085,0.11502 31.713065,0.1152 14.77541,1.8e-4 26.61632,0.0671 26.61632,0.15044 0,0.1442 -0.41675,0.9203 -2.1182,3.9447 -0.43132,0.76669 -1.17939,2.09968 -1.66239,2.96221 -1.33116,2.37714 -1.5111,2.69379 -2.40687,4.23547 l -0.82948,1.42757 h -8.42749 c -6.87509,0 -8.42749,0.0425 -8.42749,0.2306 0,0.12683 0.54888,1.15449 1.21973,2.28369 0.67086,1.1292 1.21973,2.08173 1.21973,2.11673 0,0.035 0.35285,0.66045 0.78412,1.3899 0.43126,0.72945 0.78411,1.35536 0.78411,1.3909 0,0.0355 0.47047,0.84341 1.04549,1.79526 0.57502,0.95186 1.04548,1.77518 1.04548,1.8296 0,0.0544 0.48337,0.8991 1.07415,1.87706 l 1.07416,1.77809 -0.41939,0.80016 c -0.54833,1.04615 -2.67975,4.69694 -3.03584,5.19992 -0.27272,0.3852 -0.3412,0.39205 -3.91659,0.39205 h -3.63902 z"
       id="path4" />
    <path
       style="fill:#ffffff;stroke:#000000;stroke-width:0.633148;stroke-linecap:round;stroke-linejoin:round;stroke-dasharray:none;stroke-opacity:1"
       d="m 71.807211,204.60207 c -0.287509,-0.4991 -0.744762,-1.30274 -1.016122,-1.78586 -0.271356,-0.48312 -0.851191,-1.49274 -1.288518,-2.2436 -0.786058,-1.34961 -0.791953,-1.3715 -0.515959,-1.91673 0.547228,-1.08103 1.25579,-2.29761 1.470179,-2.52425 0.119795,-0.12664 0.21781,-0.29951 0.21781,-0.38416 0,-0.0846 0.548881,-1.06275 1.219735,-2.17355 0.670851,-1.1108 1.219731,-2.04735 1.219731,-2.08121 0,-0.0339 0.588087,-1.05503 1.306857,-2.26926 0.718772,-1.21424 1.306856,-2.23734 1.306856,-2.27357 0,-0.0362 0.588087,-1.04168 1.306859,-2.23433 0.71877,-1.19265 1.306857,-2.25539 1.306857,-2.36165 0,-0.10626 0.06122,-0.1932 0.136046,-0.1932 0.07482,0 0.228801,-0.21563 0.342167,-0.47918 0.113369,-0.26355 0.285149,-0.5968 0.381736,-0.74055 0.642453,-0.9562 1.579517,-2.66187 1.579517,-2.87509 0,-0.14037 -0.300485,-0.74668 -0.667745,-1.34734 -0.367257,-0.60067 -0.867883,-1.45115 -1.112501,-1.88996 -0.803942,-1.44218 -0.919636,-1.64067 -1.007716,-1.72888 -0.04792,-0.048 -0.232423,-0.36164 -0.410012,-0.69699 -0.569248,-1.07496 -1.269547,-2.30727 -2.359771,-4.15245 -0.585015,-0.99013 -1.063664,-1.83029 -1.063664,-1.86703 0,-0.0367 -0.431263,-0.77802 -0.958361,-1.64729 -0.5271,-0.86926 -0.958363,-1.65495 -0.958363,-1.74598 0,-0.091 0.235236,-0.54781 0.522742,-1.01507 0.28751,-0.46726 0.522743,-0.90126 0.522743,-0.96444 0,-0.0632 0.195482,-0.42454 0.434404,-0.80301 0.514199,-0.81455 3.05055,-5.2336 3.05055,-5.31494 0,-0.0309 0.470469,-0.84857 1.045485,-1.81697 0.575017,-0.9684 1.047229,-1.81862 1.049359,-1.88938 0.0021,-0.0708 0.141145,-0.307 0.308917,-0.52498 l 0.305041,-0.39635 0.62839,1.09334 c 0.345615,0.60133 0.803804,1.40698 1.018196,1.79032 0.214395,0.38334 0.772748,1.34629 1.24079,2.13988 0.46804,0.79359 0.850982,1.47613 0.850982,1.51677 0,0.0406 0.548881,0.98272 1.219732,2.09352 0.670854,1.1108 1.219735,2.06382 1.219735,2.11782 0,0.054 0.588086,1.07397 1.306856,2.26663 0.718772,1.19264 1.306856,2.19614 1.306856,2.22999 0,0.0788 3.055811,5.37221 3.59813,6.23286 0.225264,0.35748 0.409567,0.6997 0.409567,0.76049 0,0.0608 0.470469,0.88931 1.045485,1.84116 0.575017,0.95186 1.045485,1.76529 1.045485,1.80763 0,0.0423 0.470469,0.86931 1.045486,1.83771 0.575016,0.96839 1.045485,1.78509 1.045485,1.81487 0,0.0298 0.588086,1.0417 1.306856,2.24869 0.718772,1.20699 1.306859,2.27309 1.306859,2.3691 0,0.096 0.07841,0.17457 0.174247,0.17457 0.09584,0 0.174246,0.0871 0.174246,0.19361 0,0.10649 0.392057,0.84268 0.871237,1.63599 0.47918,0.79331 0.87124,1.5295 0.87124,1.63599 0,0.10649 0.0784,0.19361 0.17425,0.19361 0.0958,0 0.17425,0.0871 0.17425,0.19361 0,0.10649 0.38406,0.83179 0.85347,1.61179 1.42902,2.37456 1.57847,2.62837 1.70673,2.89865 0.0681,0.14341 0.57841,1.02645 1.13411,1.96233 0.5557,0.93587 1.01037,1.73849 1.01037,1.7836 0,0.0451 0.30768,0.5847 0.68373,1.1991 0.37606,0.6144 0.97718,1.65473 1.33583,2.31185 0.35865,0.65712 0.69946,1.23397 0.75736,1.28189 0.0579,0.0479 0.19888,0.28315 0.31331,0.52274 0.23292,0.4877 1.11633,2.05533 1.64475,2.91865 l 0.34663,0.5663 h -7.30465 -7.304638 l -0.196003,-0.39205 c -0.227722,-0.45551 -0.919425,-1.6713 -2.205763,-3.87701 -1.637008,-2.80703 -2.60568,-4.49996 -3.539421,-6.18579 -0.238866,-0.43127 -0.491836,-0.86253 -0.562155,-0.95836 -0.07032,-0.0958 -0.365395,-0.60552 -0.655719,-1.13261 -0.974048,-1.76844 -1.173009,-2.08877 -1.298043,-2.08987 -0.175697,-0.002 -1.008206,1.25393 -1.008206,1.52045 0,0.12151 -0.07313,0.22092 -0.162504,0.22092 -0.08938,0 -0.215755,0.16777 -0.280839,0.37283 -0.06508,0.20506 -0.65845,1.26716 -1.318596,2.36024 -0.660149,1.09307 -1.20027,2.01951 -1.20027,2.05874 0,0.0392 -0.55862,0.99622 -1.241377,2.12663 -0.682755,1.13042 -1.290444,2.17364 -1.350417,2.31827 -0.05997,0.14463 -0.562473,1.02676 -1.116666,1.96029 l -1.007624,1.69732 -3.609938,-1.8e-4 -3.609937,-1.7e-4 z"
       id="path5" />
    <path
       style="fill:#ffffff;stroke:#000000;stroke-width:0.61251;stroke-linecap:round;stroke-linejoin:round;stroke-dasharray:none;stroke-opacity:1"
       d="m 58.362348,181.5944 c -0.299659,-0.50314 -0.740892,-1.26765 -0.980517,-1.69891 -0.239624,-0.43127 -1.280196,-2.19552 -2.312381,-3.92058 -1.819354,-3.04061 -2.854644,-4.83023 -3.239893,-5.60051 -0.198325,-0.39654 -0.330947,-0.13909 2.994344,-5.8127 0.645948,-1.10212 1.349364,-2.3175 1.563147,-2.70084 0.213784,-0.38334 0.889157,-1.54089 1.500831,-2.57232 0.611673,-1.03144 1.112134,-1.91238 1.112134,-1.95767 0,-0.0453 0.235234,-0.46464 0.522742,-0.9319 0.287509,-0.46726 0.522743,-0.93891 0.522743,-1.0481 0,-0.14585 -2.260807,-0.19854 -8.518278,-0.19854 h -8.518278 l -0.286043,-0.56631 c -0.157323,-0.31147 -0.361697,-0.68392 -0.454163,-0.82767 -0.242881,-0.3776 -1.586508,-2.70558 -2.242455,-3.8853 l -0.561697,-1.0102 0.532591,-0.86558 c 0.292926,-0.47606 0.532592,-0.89721 0.532592,-0.93588 0,-0.0387 0.470469,-0.8672 1.045486,-1.84118 0.575017,-0.97398 1.048094,-1.82329 1.051283,-1.88736 0.0032,-0.0641 0.152543,-0.29237 0.3319,-0.50735 l 0.326104,-0.39087 12.154048,-0.0447 12.154049,-0.0447 1.035841,-1.74248 c 0.569711,-0.95836 1.254974,-2.13453 1.522804,-2.61371 0.26783,-0.47918 0.96561,-1.68135 1.550625,-2.67147 0.585015,-0.99013 1.063664,-1.8295 1.063664,-1.86527 0,-0.0358 0.548881,-0.97387 1.219735,-2.08467 0.670854,-1.1108 1.219732,-2.05411 1.219732,-2.09625 0,-0.0421 0.241961,-0.46985 0.537689,-0.95046 l 0.537689,-0.87386 h 7.297986 c 6.878235,0 7.29135,0.0175 7.182638,0.30493 -0.06344,0.16772 -0.766683,1.38717 -1.562761,2.70989 -0.796079,1.32273 -1.447414,2.43214 -1.447414,2.46537 0,0.0332 -0.588084,1.05388 -1.306857,2.26811 -0.718772,1.21423 -1.306856,2.23798 -1.306856,2.27498 0,0.037 -0.548881,0.97612 -1.219734,2.08693 -0.670851,1.1108 -1.219732,2.05437 -1.219732,2.09683 0,0.0425 -0.470469,0.86951 -1.045485,1.83791 -0.575019,0.9684 -1.045486,1.78509 -1.045486,1.81488 0,0.0298 -0.588086,1.04169 -1.306859,2.24869 -0.718769,1.20699 -1.306856,2.23033 -1.306856,2.27408 0,0.0438 -0.548881,0.98838 -1.219732,2.09919 -0.670854,1.1108 -1.219734,2.05543 -1.219734,2.09919 0,0.0437 -0.588084,1.06708 -1.306857,2.27408 -0.718772,1.20699 -1.306856,2.22344 -1.306856,2.25877 0,0.0353 -0.439277,0.78867 -0.97617,1.67409 -0.536892,0.88541 -1.047543,1.7703 -1.134777,1.96641 -0.16311,0.36668 -0.283191,0.5733 -1.74027,2.99447 -0.469408,0.78 -0.853469,1.45571 -0.853469,1.50158 0,0.0459 -0.548881,1.0004 -1.219732,2.12118 -0.670854,1.12077 -1.219734,2.06934 -1.219734,2.10792 0,0.0386 -0.417041,0.75902 -0.926757,1.60096 -0.509714,0.84193 -1.184314,2.00126 -1.499108,2.57628 -0.314794,0.57501 -0.984392,1.75119 -1.488,2.61371 -0.503605,0.86253 -1.335992,2.29353 -1.849747,3.18002 -0.513757,0.88648 -0.977026,1.61179 -1.029488,1.61179 -0.05246,0 -0.34056,-0.41166 -0.640221,-0.9148 z"
       id="path6" />
    <path
       style="fill:#ffffff;stroke:#000000;stroke-width:3.21637799;stroke-linecap:round;stroke-linejoin:round;stroke-dasharray:none;filter:url(#filter154)"
       d="m 54.863492,125.6903 c 0.630859,-1.06873 1.908993,-3.32379 2.840297,-5.01125 0.931305,-1.68746 2.707024,-4.81694 3.946044,-6.95439 1.23902,-2.13745 3.641759,-6.37144 5.33942,-9.40887 6.77622,-12.123915 11.433643,-20.27016 11.811075,-20.65862 0.254704,-0.262143 11.674113,-0.482548 31.792332,-0.613622 29.54184,-0.192469 31.46232,-0.248746 32.53777,-0.953487 1.77402,-1.162511 2.0829,-0.484913 -8.92847,-19.58704 -2.03773,-3.534967 -4.62539,-8.032156 -5.75036,-9.993751 -1.12498,-1.961595 -3.24197,-5.649436 -4.70444,-8.195208 -6.07024,-10.566703 -10.83628,-19.12268 -10.77123,-19.336463 0.0711,-0.233672 9.95077,-17.4556772 11.5345,-20.1066744 l 0.87809,-1.469839 10.94042,-0.281683 c 6.01722,-0.1549257 11.88541,-0.3907342 13.04042,-0.5240189 l 2.10001,-0.2423358 1.62247,2.8120209 c 0.89237,1.5466114 6.10429,10.5436612 11.58205,19.9934442 5.47776,9.449783 10.58247,18.377988 11.34381,19.840454 0.76134,1.462466 1.69801,3.027203 2.08149,3.477193 0.38349,0.44999 1.13292,1.646553 1.6654,2.65903 0.53248,1.012477 3.14945,5.730778 5.8155,10.485111 2.66604,4.754333 4.84736,8.788797 4.84736,8.965475 0,0.176679 0.28538,0.612805 0.63419,0.969172 0.34881,0.356367 1.55439,2.276649 2.67908,4.267293 1.12468,1.990644 2.47943,4.307718 3.01054,5.149052 l 0.96566,1.529699 12.00263,0.270525 c 6.60145,0.148787 19.18201,0.291847 27.95681,0.317914 8.7748,0.02607 18.33899,0.164471 21.25375,0.307564 l 5.29957,0.260175 1.41386,2.45449 c 0.77763,1.349969 3.56422,6.136222 6.19243,10.636119 2.62821,4.499901 5.98875,10.298631 7.46787,12.886071 1.47913,2.58744 4.36022,7.55778 6.40244,11.0452 2.04221,3.48742 3.71441,6.47883 3.71601,6.64757 0.002,0.16875 -53.03157,0.30681 -117.85146,0.30681 H 53.716476 Z"
       id="path7"
       transform="matrix(0.26458333,0,0,0.26458333,39.158334,91.545833)" />
    <path
       style="fill:#ffffff;stroke:#000000;stroke-width:3.59433076;stroke-linecap:round;stroke-linejoin:round;stroke-dasharray:none;filter:url(#filter150)"
       d="m 344.73865,206.27875 c -0.67335,-1.06839 -4.86222,-8.29352 -9.30858,-16.05584 -4.44637,-7.76233 -10.60758,-18.43935 -13.69159,-23.72673 -3.08401,-5.28738 -9.61501,-16.60871 -14.51335,-25.15852 -4.89833,-8.5498 -11.24951,-19.595 -14.11371,-24.54489 -2.86421,-4.94988 -6.95604,-12.03722 -9.09297,-15.74963 -2.13692,-3.71242 -6.70913,-11.628147 -10.16046,-17.59051 -3.45134,-5.962363 -8.56038,-14.798524 -11.35343,-19.635913 -2.79305,-4.837389 -6.59132,-11.372466 -8.4406,-14.522394 -1.84928,-3.149928 -5.17573,-8.948658 -7.39211,-12.886068 -2.21638,-3.937409 -5.44559,-9.552053 -7.17602,-12.476986 C 232.3863,11.914104 228.06295,4.1081909 228.06295,3.2889492 c 0,-0.2899698 8.24193,-0.4253786 25.89154,-0.4253786 h 25.89154 l 4.27822,7.4576524 c 2.35302,4.101708 4.66997,8.21176 5.14877,9.133447 0.47881,0.921687 1.32556,2.398019 1.88166,3.280738 0.55611,0.882718 4.00403,6.851413 7.66205,13.263766 8.48189,14.868382 12.54951,21.536481 13.31724,21.831085 1.81362,0.695954 1.42955,1.292792 21.51017,-33.425534 8.68516,-15.0161851 12.29305,-20.9019829 12.97681,-21.1699691 1.12336,-0.4402799 24.6127,-0.4942399 25.29583,-0.05811 0.25892,0.1653008 3.35899,5.3186071 6.88904,11.4517921 l 6.41827,11.151246 -1.31486,2.329813 c -0.72318,1.281397 -1.91782,3.442717 -2.65476,4.802934 -0.73694,1.360216 -5.05885,8.824111 -9.60425,16.586433 -13.51582,23.08141 -28.96752,49.751189 -30.52152,52.680446 -1.08261,2.04068 -1.39021,3.03835 -1.21181,3.93035 0.24747,1.23738 3.75415,7.58576 9.30411,16.84387 1.7615,2.93842 3.20273,5.46274 3.20273,5.60958 0,0.14685 1.9059,3.54141 4.23533,7.54348 7.34689,12.62228 14.9915,26.20466 14.9915,26.6358 0,0.22834 -3.71637,6.91905 -8.2586,14.86827 -4.54224,7.94921 -8.75322,15.37355 -9.35776,16.49852 -0.60452,1.12497 -2.66787,4.76041 -4.5852,8.07875 l -3.48607,6.03334 z"
       id="path8"
       transform="matrix(0.26458333,0,0,0.26458333,39.158334,91.545833)" />
    <path
       style="fill:#ffffff;stroke:#000000;stroke-width:3.05763784;stroke-linecap:round;stroke-linejoin:round;stroke-dasharray:none;filter:url(#filter146)"
       d="m 307.57188,294.16053 c -0.94424,-0.60946 2.02299,-6.73415 9.66727,-19.95439 6.06632,-10.49126 15.84556,-27.40583 21.73164,-37.58793 5.88607,-10.1821 16.14899,-27.88508 22.80647,-39.33995 6.65749,-11.45486 22.9899,-39.70152 36.29425,-62.77035 13.30435,-23.06883 24.46462,-41.933063 24.80059,-41.920517 0.63723,0.0238 2.76496,3.520666 17.12498,28.144447 l 8.66664,14.86109 -2.35051,4.23035 c -4.85186,8.73221 -7.19274,12.82029 -18.13929,31.67816 -6.1772,10.64162 -10.9005,19.88361 -10.49621,20.53776 0.45563,0.73723 8.07669,1.19136 20.04749,1.19462 10.62183,0.003 25.03985,0.34158 32.04005,0.75262 l 12.72763,0.74735 6.0957,10.41766 6.0957,10.41766 -6.4504,11.39233 -6.45039,11.39236 h -46.11755 -46.11755 l -11.38062,19.79784 c -6.25934,10.88881 -13.5321,23.51519 -16.16169,28.05863 l -4.78108,8.2608 -24.14535,0.28441 c -13.27995,0.15643 -24.75845,-0.1113 -25.50777,-0.59495 z"
       id="path9"
       transform="matrix(0.26458333,0,0,0.26458333,39.158334,91.545833)" />
    <path
       style="fill:#ffffff;stroke:#000000;stroke-width:3.05763784;stroke-linecap:round;stroke-linejoin:round;stroke-dasharray:none;filter:url(#filter142)"
       d="m 335.54325,411.13986 c -5.72558,-9.97062 -15.93629,-27.80376 -22.69044,-39.62922 l -12.28028,-21.50082 -33.29797,-0.57853 -33.29797,-0.57853 -12.52083,-21.40555 c -6.88646,-11.77306 -12.54021,-21.8215 -12.56388,-22.32987 -0.0499,-1.07141 231.97626,-0.5904 233.04902,0.48313 0.39346,0.39374 -4.68275,10.28658 -11.28046,21.98409 l -11.99583,21.2682 -31.30831,0.30763 c -23.4377,0.2303 -31.61217,0.67375 -32.51698,1.76397 -0.88961,1.07193 2.89468,8.60771 14.33678,28.54931 8.55,14.90113 15.54544,27.22507 15.54544,27.38652 0,0.16146 -2.91311,5.26932 -6.47359,11.35081 l -6.47357,11.05724 H 358.8639 345.95342 Z"
       id="path10"
       transform="matrix(0.26458333,0,0,0.26458333,39.158334,91.545833)" />
    <path
       style="fill:#ffffff;stroke:#000000;stroke-width:3.05763784;stroke-linecap:round;stroke-linejoin:round;stroke-dasharray:none;filter:url(#filter138)"
       d="m 125.88167,427.82192 c -0.6047,-0.79547 -3.60755,-5.78606 -6.673,-11.09018 -6.25928,-10.83042 -6.34664,-9.26913 1.24076,-22.17521 3.66152,-6.2282 22.41697,-38.60749 32.06878,-55.36335 6.87242,-11.93072 6.89053,-11.98679 5.04612,-15.62027 -1.01808,-2.00562 -8.34653,-14.84111 -16.28546,-28.52331 l -14.43441,-24.87673 3.14619,-5.78529 c 9.3094,-17.11836 21.65783,-38.68804 22.16238,-38.71226 0.31819,-0.0153 4.8284,7.38704 10.0227,16.4496 5.19429,9.06256 14.24837,24.80819 20.12018,34.99029 5.8718,10.18211 17.70355,30.7488 26.29276,45.70377 16.52459,28.7715 30.22796,52.56808 48.33006,83.92758 6.07424,10.52283 11.33671,19.89499 11.69437,20.82703 0.55886,1.45636 -2.91105,1.69465 -24.67599,1.69465 h -25.3263 l -14.76788,-25.88362 c -8.12234,-14.23601 -15.49551,-26.86239 -16.38483,-28.05864 -1.57741,-2.12182 -1.67364,-2.11842 -3.93553,0.1391 -1.27522,1.27276 -5.39048,7.78121 -9.14502,14.46322 -3.75455,6.682 -10.41133,18.26704 -14.79285,25.74452 l -7.9664,13.59542 h -12.31859 c -8.49712,0 -12.65966,-0.44867 -13.41804,-1.44632 z"
       id="path11"
       transform="matrix(0.26458333,0,0,0.26458333,39.158334,91.545833)" />
    <path
       style="fill:#ffffff;stroke:#000000;stroke-width:3.05763784;stroke-linecap:round;stroke-linejoin:round;stroke-dasharray:none;filter:url(#filter134)"
       d="m 67.952638,329.4477 c -3.354465,-5.87313 -8.945107,-15.59365 -12.423649,-21.60115 l -6.324623,-10.92274 3.909527,-7.01165 c 2.150241,-3.85641 9.166865,-16.12349 15.5925,-27.26016 6.425635,-11.13668 11.688847,-20.89935 11.696029,-21.69483 0.01638,-1.81471 2.631558,-1.6253 -34.05819,-2.4668 l -31.178604,-0.7151 -6.0143954,-10.41352 c -4.9397143,-8.55278 -5.799773,-10.82701 -4.8132718,-12.72763 0.6606181,-1.27276 3.4667244,-6.26572 6.2357922,-11.09547 l 5.034667,-8.78135 30.37868,-0.762 c 16.708273,-0.4191 37.66814,-0.77035 46.577481,-0.78055 l 16.198799,-0.0186 8.83993,-15.31483 c 4.86197,-8.42315 12.07807,-20.91209 16.0358,-27.75319 l 7.19585,-12.43837 h 26.0019 26.00191 l -2.2714,3.76044 c -1.24928,2.06824 -6.16665,10.52922 -10.92748,18.80218 -4.76083,8.27296 -20.10296,34.82742 -34.09362,59.00992 -13.99066,24.1825 -30.10465,52.03865 -35.80885,61.90256 -29.9459,51.78351 -34.223333,59.00797 -34.92397,58.98557 -0.418982,-0.0134 -3.506347,-4.82965 -6.860812,-10.70278 z"
       id="path12"
       transform="matrix(0.26458333,0,0,0.26458333,39.158334,91.545833)" />
  </g>
</svg>
