<?xml version="1.0" encoding="UTF-8"?>
<svg xmlns="http://www.w3.org/2000/svg" width="520" height="600" viewBox="0 0 520 600">
  <rect width="100%" height="100%" fill="#1a1a1a"/>
  <style>
    .hex-label { font-family: 'SF Mono', 'Fira Code', 'Consolas', monospace; font-size: 11px; text-anchor: middle; }
  </style>

  <rect x="30" y="20" width="100" height="100" rx="8" fill="#131313"/>
  <text x="80" y="140" class="hex-label" fill="#e0e0e0">#131313</text>

  <rect x="150" y="20" width="100" height="100" rx="8" fill="#191919"/>
  <text x="200" y="140" class="hex-label" fill="#e0e0e0">#191919</text>

  <rect x="270" y="20" width="100" height="100" rx="8" fill="#222222"/>
  <text x="320" y="140" class="hex-label" fill="#e0e0e0">#222222</text>

  <rect x="390" y="20" width="100" height="100" rx="8" fill="#69676c"/>
  <text x="440" y="140" class="hex-label" fill="#e0e0e0">#69676c</text>

  <rect x="30" y="160" width="100" height="100" rx="8" fill="#8b888f"/>
  <text x="80" y="280" class="hex-label" fill="#e0e0e0">#8b888f</text>

  <rect x="150" y="160" width="100" height="100" rx="8" fill="#bab6c0"/>
  <text x="200" y="280" class="hex-label" fill="#e0e0e0">#bab6c0</text>

  <rect x="270" y="160" width="100" height="100" rx="8" fill="#d9d5df"/>
  <text x="320" y="280" class="hex-label" fill="#e0e0e0">#d9d5df</text>

  <rect x="390" y="160" width="100" height="100" rx="8" fill="#f7f1ff"/>
  <text x="440" y="280" class="hex-label" fill="#e0e0e0">#f7f1ff</text>

  <rect x="30" y="300" width="100" height="100" rx="8" fill="#fc618d"/>
  <text x="80" y="420" class="hex-label" fill="#e0e0e0">#fc618d</text>

  <rect x="150" y="300" width="100" height="100" rx="8" fill="#fd9353"/>
  <text x="200" y="420" class="hex-label" fill="#e0e0e0">#fd9353</text>

  <rect x="270" y="300" width="100" height="100" rx="8" fill="#fce566"/>
  <text x="320" y="420" class="hex-label" fill="#e0e0e0">#fce566</text>

  <rect x="390" y="300" width="100" height="100" rx="8" fill="#7bd88f"/>
  <text x="440" y="420" class="hex-label" fill="#e0e0e0">#7bd88f</text>

  <rect x="30" y="440" width="100" height="100" rx="8" fill="#5ad4e6"/>
  <text x="80" y="560" class="hex-label" fill="#e0e0e0">#5ad4e6</text>

  <rect x="150" y="440" width="100" height="100" rx="8" fill="#6b9ce8"/>
  <text x="200" y="560" class="hex-label" fill="#e0e0e0">#6b9ce8</text>

  <rect x="270" y="440" width="100" height="100" rx="8" fill="#948ae3"/>
  <text x="320" y="560" class="hex-label" fill="#e0e0e0">#948ae3</text>

  <rect x="390" y="440" width="100" height="100" rx="8" fill="#fd9353"/>
  <text x="440" y="560" class="hex-label" fill="#e0e0e0">#fd9353</text>

</svg>